<svg width="20" height="20" viewBox="0 0 20 20" fill="none" xmlns="http://www.w3.org/2000/svg">
<path d="M14.1667 11.6668C14.627 11.6668 15.0001 11.2937 15.0001 10.8335C15.0001 10.3733 14.627 10.0002 14.1667 10.0002C13.7065 10.0002 13.3334 10.3733 13.3334 10.8335C13.3334 11.2937 13.7065 11.6668 14.1667 11.6668Z" fill="#464F60"/>
<path d="M14.1667 15.0002C14.627 15.0002 15.0001 14.6271 15.0001 14.1668C15.0001 13.7066 14.627 13.3335 14.1667 13.3335C13.7065 13.3335 13.3334 13.7066 13.3334 14.1668C13.3334 14.6271 13.7065 15.0002 14.1667 15.0002Z" fill="#464F60"/>
<path d="M10.8334 10.8335C10.8334 11.2937 10.4603 11.6668 10.0001 11.6668C9.53984 11.6668 9.16675 11.2937 9.16675 10.8335C9.16675 10.3733 9.53984 10.0002 10.0001 10.0002C10.4603 10.0002 10.8334 10.3733 10.8334 10.8335Z" fill="#464F60"/>
<path d="M10.8334 14.1668C10.8334 14.6271 10.4603 15.0002 10.0001 15.0002C9.53984 15.0002 9.16675 14.6271 9.16675 14.1668C9.16675 13.7066 9.53984 13.3335 10.0001 13.3335C10.4603 13.3335 10.8334 13.7066 10.8334 14.1668Z" fill="#464F60"/>
<path d="M5.83342 11.6668C6.29365 11.6668 6.66675 11.2937 6.66675 10.8335C6.66675 10.3733 6.29365 10.0002 5.83342 10.0002C5.37318 10.0002 5.00008 10.3733 5.00008 10.8335C5.00008 11.2937 5.37318 11.6668 5.83342 11.6668Z" fill="#464F60"/>
<path d="M5.83342 15.0002C6.29365 15.0002 6.66675 14.6271 6.66675 14.1668C6.66675 13.7066 6.29365 13.3335 5.83342 13.3335C5.37318 13.3335 5.00008 13.7066 5.00008 14.1668C5.00008 14.6271 5.37318 15.0002 5.83342 15.0002Z" fill="#464F60"/>
<path fill-rule="evenodd" clip-rule="evenodd" d="M5.83342 1.4585C6.17859 1.4585 6.45842 1.73832 6.45842 2.0835V2.7191C7.01008 2.70848 7.61785 2.70849 8.2863 2.7085H11.7138C12.3822 2.70849 12.9901 2.70848 13.5417 2.7191V2.0835C13.5417 1.73832 13.8216 1.4585 14.1667 1.4585C14.5119 1.4585 14.7917 1.73832 14.7917 2.0835V2.77274C15.0084 2.78925 15.2135 2.81001 15.4076 2.83611C16.3846 2.96746 17.1754 3.24423 17.799 3.86787C18.4227 4.4915 18.6994 5.28229 18.8308 6.25931C18.9584 7.20865 18.9584 8.42166 18.9584 9.95312V11.7138C18.9584 13.2453 18.9584 14.4583 18.8308 15.4077C18.6994 16.3847 18.4227 17.1755 17.799 17.7991C17.1754 18.4228 16.3846 18.6995 15.4076 18.8309C14.4583 18.9585 13.2452 18.9585 11.7138 18.9585H8.28641C6.75496 18.9585 5.5419 18.9585 4.59256 18.8309C3.61554 18.6995 2.82475 18.4228 2.20112 17.7991C1.57748 17.1755 1.30072 16.3847 1.16936 15.4077C1.04172 14.4583 1.04174 13.2453 1.04175 11.7138V9.95315C1.04174 8.42168 1.04172 7.20865 1.16936 6.25931C1.30072 5.28229 1.57748 4.4915 2.20112 3.86787C2.82475 3.24423 3.61554 2.96746 4.59256 2.83611C4.78667 2.81001 4.9918 2.78925 5.20842 2.77274V2.0835C5.20842 1.73832 5.48824 1.4585 5.83342 1.4585ZM4.75912 4.07496C3.92071 4.18768 3.43768 4.39907 3.085 4.75175C2.73233 5.10442 2.52094 5.58746 2.40821 6.42587C2.38912 6.56786 2.37316 6.71734 2.35982 6.87516H17.6403C17.627 6.71734 17.611 6.56786 17.5919 6.42587C17.4792 5.58746 17.2678 5.10442 16.9152 4.75175C16.5625 4.39907 16.0794 4.18768 15.241 4.07496C14.3847 3.95982 13.2558 3.9585 11.6667 3.9585H8.33342C6.7444 3.9585 5.61551 3.95982 4.75912 4.07496ZM2.29175 10.0002C2.29175 9.28848 2.29201 8.6691 2.30265 8.12516H17.6975C17.7081 8.6691 17.7084 9.28848 17.7084 10.0002V11.6668C17.7084 13.2558 17.7071 14.3847 17.5919 15.2411C17.4792 16.0795 17.2678 16.5626 16.9152 16.9152C16.5625 17.2679 16.0794 17.4793 15.241 17.592C14.3847 17.7072 13.2558 17.7085 11.6667 17.7085H8.33342C6.7444 17.7085 5.61551 17.7072 4.75912 17.592C3.92072 17.4793 3.43768 17.2679 3.085 16.9152C2.73233 16.5626 2.52094 16.0795 2.40821 15.2411C2.29308 14.3847 2.29175 13.2558 2.29175 11.6668V10.0002Z" fill="#464F60"/>
</svg>
